<?xml version="1.0" standalone="no"?>
<!DOCTYPE svg PUBLIC "-//W3C//DTD SVG 20010904//EN"
 "http://www.w3.org/TR/2001/REC-SVG-20010904/DTD/svg10.dtd">
<svg version="1.0"
    xmlns="http://www.w3.org/2000/svg" width="173.000000pt" height="150.000000pt" viewBox="0 0 173.000000 150.000000" preserveAspectRatio="xMidYMid meet">

    <g transform="translate(0.000000,150.000000) scale(0.100000,-0.100000)" fill="#ffffff" stroke="none">
        <path d="M24 1458 c14 -24 63 -108 109 -188 l83 -145 112 -3 112 -3 -46 78
c-25 43 -50 86 -55 95 -9 17 4 18 211 18 l220 0 0 -572 0 -571 47 -84 c25 -45
48 -82 49 -80 1 1 188 324 414 717 227 393 421 730 432 748 l20 32 -867 0
-866 0 25 -42z m1365 -170 c-7 -13 -76 -133 -154 -268 -78 -135 -172 -297
-209 -360 l-66 -115 0 383 0 382 220 0 221 0 -12 -22z"/>
    </g>
</svg>
